<svg xmlns="http://www.w3.org/2000/svg"
     viewBox="-260 -340 2009.0546875 1544"
     width="2009.0546875" height="1544">
<g id="edges">
<polyline points="123.69921875,424 191.849609375,424 191.849609375,500 260,500" fill="none" stroke="#6b7280" stroke-width="2" stroke-dasharray="6 4" stroke-linecap="round" stroke-linejoin="round"/>
<g transform="translate(260, 500) rotate(0)"><polyline points="-14,-7 0,0 -14,7" fill="none" stroke="#6b7280" stroke-width="2" stroke-linecap="round" stroke-linejoin="round"/></g>
<polyline points="900,-76 900,204 516,204 516,484" fill="none" stroke="#6b7280" stroke-width="2" stroke-linecap="round" stroke-linejoin="round"/>
<g transform="translate(516, 500) rotate(90)"><polygon points="-16,-8 -16,8 0,0" fill="#0b0f1a" stroke="#6b7280" stroke-width="2" stroke-linejoin="round"/></g>
<polyline points="1240,484 532,500" fill="none" stroke="#6b7280" stroke-width="2" stroke-linecap="round" stroke-linejoin="round"/>
<g transform="translate(516, 500) rotate(180)"><polygon points="-16,-8 -16,8 0,0" fill="#0b0f1a" stroke="#6b7280" stroke-width="2" stroke-linejoin="round"/></g>
<polyline points="1240,800 532,778" fill="none" stroke="#6b7280" stroke-width="2" stroke-linecap="round" stroke-linejoin="round"/>
<g transform="translate(516, 778) rotate(180)"><polygon points="-16,-8 -16,8 0,0" fill="#0b0f1a" stroke="#6b7280" stroke-width="2" stroke-linejoin="round"/></g>
<polyline points="352,880 352,837 388,837 388,794" fill="none" stroke="#6b7280" stroke-width="2" stroke-linecap="round" stroke-linejoin="round"/>
<g transform="translate(388, 778) rotate(-90)"><polygon points="-16,-8 -16,8 0,0" fill="#0b0f1a" stroke="#6b7280" stroke-width="2" stroke-linejoin="round"/></g>
<polyline points="123.69921875,100 511.849609375,100 511.849609375,-76 900,-76" fill="none" stroke="#6b7280" stroke-width="2" stroke-linecap="round" stroke-linejoin="round"/>
<g transform="translate(900, -76) rotate(0)"><polyline points="-14,-7 0,0 -14,7" fill="none" stroke="#6b7280" stroke-width="2" stroke-linecap="round" stroke-linejoin="round"/></g>
<polyline points="-180,424 -160,880" fill="none" stroke="#6b7280" stroke-width="2" stroke-linecap="round" stroke-linejoin="round"/>
<g transform="translate(-160, 880) rotate(90)"><polyline points="-14,-7 0,0 -14,7" fill="none" stroke="#6b7280" stroke-width="2" stroke-linecap="round" stroke-linejoin="round"/></g>
<polyline points="123.69921875,262 1240,280" fill="none" stroke="#6b7280" stroke-width="2" stroke-linecap="round" stroke-linejoin="round"/>
<g transform="translate(1240, 280) rotate(0)"><polyline points="-14,-7 0,0 -14,7" fill="none" stroke="#6b7280" stroke-width="2" stroke-linecap="round" stroke-linejoin="round"/></g>
<polyline points="123.69921875,424 681.849609375,424 681.849609375,800 1240,800" fill="none" stroke="#6b7280" stroke-width="2" stroke-linecap="round" stroke-linejoin="round"/>
<g transform="translate(1240, 800) rotate(0)"><polyline points="-14,-7 0,0 -14,7" fill="none" stroke="#6b7280" stroke-width="2" stroke-linecap="round" stroke-linejoin="round"/></g>
</g>
<g id="nodes">
<g transform="translate(-180, 100)">
  <rect x="0" y="0" width="303.69921875" height="324" fill="#141833" stroke="#7c83ff" stroke-width="2" rx="2" ry="2"/>
  <path d="M 0,2 A 2,2 0 0,1 2,0 L 301.69921875,0 A 2,2 0 0,1 303.69921875,2 L 303.69921875,52 L 0,52 Z" fill="#1c2440"/>
  <text x="151.849609375" y="10" font-size="10" font-family="Inter, ui-sans-serif, system-ui, sans-serif" fill="#aab0c5" text-anchor="middle" dominant-baseline="hanging">App</text>
  <text x="151.849609375" y="25" font-size="14" font-family="Inter, ui-sans-serif, system-ui, sans-serif" fill="#e6e9f2" text-anchor="middle" dominant-baseline="hanging" font-weight="bold" font-style="normal">App</text>
  <line x1="0" y1="52" x2="303.69921875" y2="52" stroke="#7c83ff" stroke-width="2"/>
  <line x1="0" y1="168" x2="303.69921875" y2="168" stroke="#7c83ff" stroke-width="2"/>
  <text x="10" y="62" font-size="12" font-family="'Fira Code', monospace" fill="#aab0c5" dominant-baseline="hanging" font-style="normal">-circulos: ArrayList&lt;Circulo&gt;</text>
  <text x="10" y="82" font-size="12" font-family="'Fira Code', monospace" fill="#aab0c5" dominant-baseline="hanging" font-style="normal">-triangulos: ArrayList&lt;Triangulo&gt;</text>
  <text x="10" y="102" font-size="12" font-family="'Fira Code', monospace" fill="#aab0c5" dominant-baseline="hanging" font-style="normal">-cuadrados: ArrayList&lt;Cuadrado&gt;</text>
  <text x="10" y="122" font-size="12" font-family="'Fira Code', monospace" fill="#aab0c5" dominant-baseline="hanging" font-style="normal">-pentagonos: ArrayList&lt;Pentagono&gt;</text>
  <text x="10" y="142" font-size="12" font-family="'Fira Code', monospace" fill="#aab0c5" dominant-baseline="hanging" font-style="normal">-sc: Scanner</text>
  <text x="10" y="178" font-size="12" font-family="'Fira Code', monospace" fill="#aab0c5" dominant-baseline="hanging" font-style="normal">+cargarDatosDesdeTXT(archivo: String): void</text>
  <text x="10" y="198" font-size="12" font-family="'Fira Code', monospace" fill="#aab0c5" dominant-baseline="hanging" font-style="normal">-imprimirInfoFigura(f: Figura): void</text>
  <text x="10" y="218" font-size="12" font-family="'Fira Code', monospace" fill="#aab0c5" dominant-baseline="hanging" font-style="normal">+ejecutarMenu(): void</text>
  <text x="10" y="238" font-size="12" font-family="'Fira Code', monospace" fill="#aab0c5" dominant-baseline="hanging" font-style="normal">-mostrarTodasLasFiguras(): void</text>
  <text x="10" y="258" font-size="12" font-family="'Fira Code', monospace" fill="#aab0c5" dominant-baseline="hanging" font-style="normal">-consultarPorId(): void</text>
  <text x="10" y="278" font-size="12" font-family="'Fira Code', monospace" fill="#aab0c5" dominant-baseline="hanging" font-style="normal">-menuActualizarFigura(): void</text>
  <text x="10" y="298" font-size="12" font-family="'Fira Code', monospace" fill="#aab0c5" dominant-baseline="hanging" font-style="normal" text-decoration="underline">~main(args: String[]): void</text>
</g>
<g transform="translate(900, -260)">
  <rect x="0" y="0" width="343.28515625" height="184" fill="#141833" stroke="#7c83ff" stroke-width="2" rx="2" ry="2"/>
  <path d="M 0,2 A 2,2 0 0,1 2,0 L 341.28515625,0 A 2,2 0 0,1 343.28515625,2 L 343.28515625,52 L 0,52 Z" fill="#1c2440"/>
  <text x="171.642578125" y="10" font-size="10" font-family="Inter, ui-sans-serif, system-ui, sans-serif" fill="#aab0c5" text-anchor="middle" dominant-baseline="hanging">FigurasGeometricas</text>
  <text x="171.642578125" y="25" font-size="14" font-family="Inter, ui-sans-serif, system-ui, sans-serif" fill="#e6e9f2" text-anchor="middle" dominant-baseline="hanging" font-weight="bold" font-style="normal">Circulo</text>
  <line x1="0" y1="52" x2="343.28515625" y2="52" stroke="#7c83ff" stroke-width="2"/>
  <line x1="0" y1="88" x2="343.28515625" y2="88" stroke="#7c83ff" stroke-width="2"/>
  <text x="10" y="62" font-size="12" font-family="'Fira Code', monospace" fill="#aab0c5" dominant-baseline="hanging" font-style="normal">#diametro: double</text>
  <text x="10" y="98" font-size="12" font-family="'Fira Code', monospace" fill="#aab0c5" dominant-baseline="hanging" font-style="normal">+Circulo(id: int, color: Color, diametro: double)</text>
  <text x="10" y="118" font-size="12" font-family="'Fira Code', monospace" fill="#aab0c5" dominant-baseline="hanging" font-style="normal">+setDiametro(diametro: double): void</text>
  <text x="10" y="138" font-size="12" font-family="'Fira Code', monospace" fill="#aab0c5" dominant-baseline="hanging" font-style="normal">+calcularArea(): double</text>
  <text x="10" y="158" font-size="12" font-family="'Fira Code', monospace" fill="#aab0c5" dominant-baseline="hanging" font-style="normal">+calcularPerimetro(): double</text>
</g>
<g transform="translate(1240, 280)">
  <rect x="0" y="0" width="429.0546875" height="204" fill="#141833" stroke="#7c83ff" stroke-width="2" rx="2" ry="2"/>
  <path d="M 0,2 A 2,2 0 0,1 2,0 L 427.0546875,0 A 2,2 0 0,1 429.0546875,2 L 429.0546875,52 L 0,52 Z" fill="#1c2440"/>
  <text x="214.52734375" y="10" font-size="10" font-family="Inter, ui-sans-serif, system-ui, sans-serif" fill="#aab0c5" text-anchor="middle" dominant-baseline="hanging">FigurasGeometricas</text>
  <text x="214.52734375" y="25" font-size="14" font-family="Inter, ui-sans-serif, system-ui, sans-serif" fill="#e6e9f2" text-anchor="middle" dominant-baseline="hanging" font-weight="bold" font-style="normal">Cuadrado</text>
  <line x1="0" y1="52" x2="429.0546875" y2="52" stroke="#7c83ff" stroke-width="2"/>
  <line x1="0" y1="108" x2="429.0546875" y2="108" stroke="#7c83ff" stroke-width="2"/>
  <text x="10" y="62" font-size="12" font-family="'Fira Code', monospace" fill="#aab0c5" dominant-baseline="hanging" font-style="normal">#lado1: Double</text>
  <text x="10" y="82" font-size="12" font-family="'Fira Code', monospace" fill="#aab0c5" dominant-baseline="hanging" font-style="normal">#lado2: double</text>
  <text x="10" y="118" font-size="12" font-family="'Fira Code', monospace" fill="#aab0c5" dominant-baseline="hanging" font-style="normal">+Cuadrado(id: int, color: Color, lado1: double, lado2: double)</text>
  <text x="10" y="138" font-size="12" font-family="'Fira Code', monospace" fill="#aab0c5" dominant-baseline="hanging" font-style="normal">+setLados(l1: double, l2: double): void</text>
  <text x="10" y="158" font-size="12" font-family="'Fira Code', monospace" fill="#aab0c5" dominant-baseline="hanging" font-style="normal">+calcularArea(): double</text>
  <text x="10" y="178" font-size="12" font-family="'Fira Code', monospace" fill="#aab0c5" dominant-baseline="hanging" font-style="normal">+calcularPerimetro(): double</text>
</g>
<g transform="translate(260, 500)">
  <rect x="0" y="0" width="256" height="278" fill="#141833" stroke="#60a5fa" stroke-width="2" rx="2" ry="2"/>
  <path d="M 0,2 A 2,2 0 0,1 2,0 L 254,0 A 2,2 0 0,1 256,2 L 256,66 L 0,66 Z" fill="#1c2440"/>
  <text x="128" y="10" font-size="10" font-family="'Fira Code', monospace" fill="#60a5fa" text-anchor="middle" dominant-baseline="hanging" font-style="italic">&lt;&lt;abstract&gt;&gt;</text>
  <text x="128" y="24" font-size="10" font-family="Inter, ui-sans-serif, system-ui, sans-serif" fill="#aab0c5" text-anchor="middle" dominant-baseline="hanging">FigurasGeometricas</text>
  <text x="128" y="39" font-size="14" font-family="Inter, ui-sans-serif, system-ui, sans-serif" fill="#e6e9f2" text-anchor="middle" dominant-baseline="hanging" font-weight="bold" font-style="italic">Figura</text>
  <line x1="0" y1="66" x2="256" y2="66" stroke="#60a5fa" stroke-width="2"/>
  <line x1="0" y1="122" x2="256" y2="122" stroke="#60a5fa" stroke-width="2"/>
  <text x="10" y="76" font-size="12" font-family="'Fira Code', monospace" fill="#aab0c5" dominant-baseline="hanging" font-style="normal">-color: Color</text>
  <text x="10" y="96" font-size="12" font-family="'Fira Code', monospace" fill="#aab0c5" dominant-baseline="hanging" font-style="normal">-id: int</text>
  <text x="10" y="132" font-size="12" font-family="'Fira Code', monospace" fill="#aab0c5" dominant-baseline="hanging" font-style="normal">+Figura(id: int, color: Color)</text>
  <text x="10" y="152" font-size="12" font-family="'Fira Code', monospace" fill="#aab0c5" dominant-baseline="hanging" font-style="normal">+Figura(color: Color)</text>
  <text x="10" y="172" font-size="12" font-family="'Fira Code', monospace" fill="#aab0c5" dominant-baseline="hanging" font-style="normal">+getColor(): Color</text>
  <text x="10" y="192" font-size="12" font-family="'Fira Code', monospace" fill="#aab0c5" dominant-baseline="hanging" font-style="normal">+setColor(color: Color): void</text>
  <text x="10" y="212" font-size="12" font-family="'Fira Code', monospace" fill="#aab0c5" dominant-baseline="hanging" font-style="normal">+getId(): int</text>
  <text x="10" y="232" font-size="12" font-family="'Fira Code', monospace" fill="#aab0c5" dominant-baseline="hanging" font-style="italic">~calcularArea(): double</text>
  <text x="10" y="252" font-size="12" font-family="'Fira Code', monospace" fill="#aab0c5" dominant-baseline="hanging" font-style="italic">~calcularPerimetro(): double</text>
</g>
<g transform="translate(1240, 800)">
  <rect x="0" y="0" width="330.08984375" height="184" fill="#141833" stroke="#7c83ff" stroke-width="2" rx="2" ry="2"/>
  <path d="M 0,2 A 2,2 0 0,1 2,0 L 328.08984375,0 A 2,2 0 0,1 330.08984375,2 L 330.08984375,52 L 0,52 Z" fill="#1c2440"/>
  <text x="165.044921875" y="10" font-size="10" font-family="Inter, ui-sans-serif, system-ui, sans-serif" fill="#aab0c5" text-anchor="middle" dominant-baseline="hanging">FigurasGeometricas</text>
  <text x="165.044921875" y="25" font-size="14" font-family="Inter, ui-sans-serif, system-ui, sans-serif" fill="#e6e9f2" text-anchor="middle" dominant-baseline="hanging" font-weight="bold" font-style="normal">Pentagono</text>
  <line x1="0" y1="52" x2="330.08984375" y2="52" stroke="#7c83ff" stroke-width="2"/>
  <line x1="0" y1="88" x2="330.08984375" y2="88" stroke="#7c83ff" stroke-width="2"/>
  <text x="10" y="62" font-size="12" font-family="'Fira Code', monospace" fill="#aab0c5" dominant-baseline="hanging" font-style="normal">#lado: double</text>
  <text x="10" y="98" font-size="12" font-family="'Fira Code', monospace" fill="#aab0c5" dominant-baseline="hanging" font-style="normal">+Pentagono(id: int, color: Color, lado: double)</text>
  <text x="10" y="118" font-size="12" font-family="'Fira Code', monospace" fill="#aab0c5" dominant-baseline="hanging" font-style="normal">+setLado(lado: double): void</text>
  <text x="10" y="138" font-size="12" font-family="'Fira Code', monospace" fill="#aab0c5" dominant-baseline="hanging" font-style="normal">+calcularArea(): double</text>
  <text x="10" y="158" font-size="12" font-family="'Fira Code', monospace" fill="#aab0c5" dominant-baseline="hanging" font-style="normal">+calcularPerimetro(): double</text>
</g>
<g transform="translate(-160, 880)">
  <rect x="0" y="0" width="512" height="244" fill="#141833" stroke="#7c83ff" stroke-width="2" rx="2" ry="2"/>
  <path d="M 0,2 A 2,2 0 0,1 2,0 L 510,0 A 2,2 0 0,1 512,2 L 512,52 L 0,52 Z" fill="#1c2440"/>
  <text x="256" y="10" font-size="10" font-family="Inter, ui-sans-serif, system-ui, sans-serif" fill="#aab0c5" text-anchor="middle" dominant-baseline="hanging">FigurasGeometricas</text>
  <text x="256" y="25" font-size="14" font-family="Inter, ui-sans-serif, system-ui, sans-serif" fill="#e6e9f2" text-anchor="middle" dominant-baseline="hanging" font-weight="bold" font-style="normal">Triangulo</text>
  <line x1="0" y1="52" x2="512" y2="52" stroke="#7c83ff" stroke-width="2"/>
  <line x1="0" y1="128" x2="512" y2="128" stroke="#7c83ff" stroke-width="2"/>
  <text x="10" y="62" font-size="12" font-family="'Fira Code', monospace" fill="#aab0c5" dominant-baseline="hanging" font-style="normal">#lado1: double</text>
  <text x="10" y="82" font-size="12" font-family="'Fira Code', monospace" fill="#aab0c5" dominant-baseline="hanging" font-style="normal">#lado2: double</text>
  <text x="10" y="102" font-size="12" font-family="'Fira Code', monospace" fill="#aab0c5" dominant-baseline="hanging" font-style="normal">#lado3: Double</text>
  <text x="10" y="138" font-size="12" font-family="'Fira Code', monospace" fill="#aab0c5" dominant-baseline="hanging" font-style="normal">+Triangulo(id: int, color: Color, lado1: double, lado2: double, lado3: double)</text>
  <text x="10" y="178" font-size="12" font-family="'Fira Code', monospace" fill="#aab0c5" dominant-baseline="hanging" font-style="normal">+setLados(l1: double, l2: double, l3: double): void</text>
  <text x="10" y="198" font-size="12" font-family="'Fira Code', monospace" fill="#aab0c5" dominant-baseline="hanging" font-style="normal">+calcularArea(): double</text>
  <text x="10" y="218" font-size="12" font-family="'Fira Code', monospace" fill="#aab0c5" dominant-baseline="hanging" font-style="normal">+calcularPerimetro(): double</text>
</g>
<g transform="translate(-140, -180)">
  <path d="M 0,0 L 212,0 L 224,12 L 224,102 L 0,102 Z" fill="#0b1c2d" stroke="#38bdf8" stroke-width="1"/>
  <path d="M 212,0 L 224,0 L 224,12 Z" fill="#121826" stroke="#38bdf8" stroke-width="1"/>
  <rect x="0" y="0" width="212" height="32" fill="#121826" opacity="0.5"/>
  <text x="8" y="6" font-size="14" font-family="Inter, ui-sans-serif, system-ui, sans-serif" fill="#38bdf8" dominant-baseline="hanging" font-weight="bold">Elaborado por :</text>
  <line x1="0" y1="32" x2="212" y2="32" stroke="#38bdf8" stroke-width="1" stroke-dasharray="4 3"/>
  <text x="8" y="40" font-size="12" font-family="'Fira Code', monospace" fill="#aab0c5" dominant-baseline="hanging"><tspan x="8">Manuel Amell #001</tspan><tspan x="8" dy="18">Andres Ramos #028</tspan><tspan x="8" dy="18">Brayan Ochoa #003</tspan></text>
</g>
</g>
</svg>